<!DOCTYPE svg PUBLIC "-//W3C//DTD SVG 1.1//EN" "http://www.w3.org/Graphics/SVG/1.1/DTD/svg11.dtd">
<!-- Uploaded to: SVG Repo, www.svgrepo.com, Transformed by: SVG Repo Mixer Tools -->
<svg fill="#000000" height="800px" width="800px" version="1.1" id="Layer_1" xmlns="http://www.w3.org/2000/svg" xmlns:xlink="http://www.w3.org/1999/xlink" viewBox="0 0 512.002 512.002" xml:space="preserve" stroke="#000000">
<g id="SVGRepo_bgCarrier" stroke-width="0"/>
<g id="SVGRepo_tracerCarrier" stroke-linecap="round" stroke-linejoin="round" stroke="#CCCCCC" stroke-width="3.0720119999999995"/>
<g id="SVGRepo_iconCarrier"> <g> <g> <path d="M352.002,341.334c91.2,0,160-36.693,160-85.333s-68.8-85.333-160-85.333l-18.944-21.333h29.611 c11.797,0,21.333-9.557,21.333-21.333s-9.536-21.333-21.333-21.333h-67.477l-18.944-21.333h22.421 c11.797,0,21.333-9.557,21.333-21.333s-9.536-21.333-21.333-21.333h-60.309L208.194,8.684c-4.053-5.141-11.349-8.683-17.899-8.683 h-39.339c-7.189,0-14.016,3.435-18.304,9.216c-3.989,5.333-5.44,13.44-3.584,19.84l45.845,158.379 c-20.523-2.304-46.528-1.835-68.395,9.237l-45.077-40.491c-4.011-3.989-10.603-6.72-16.277-6.72h-22.08 c-7.531,0-14.635,3.691-18.923,9.877c-4.053,5.867-5.12,14.827-2.517,21.44l29.632,75.221l-29.845,75.84 c-2.603,7.04-1.621,14.912,2.667,21.077c3.989,5.739,11.947,9.899,18.923,9.899H45.1c5.269,0,11.563-2.432,15.488-5.973 l45.803-41.365c21.888,11.328,47.808,11.755,68.416,9.387l-45.781,157.824c-2.069,6.848-0.768,14.357,3.499,20.096 c4.011,5.44,11.563,9.216,18.304,9.216h39.339c6.123,0,13.099-3.179,17.152-7.765l30.784-34.901h68.16 c11.797,0,21.333-9.557,21.333-21.333s-9.536-21.333-21.333-21.333h-30.549l18.816-21.333h68.139 c11.797,0,21.333-9.557,21.333-21.333s-9.536-21.333-21.333-21.333H332.14l18.816-21.333H352.002z M405.335,234.668 c11.776,0,21.333,9.557,21.333,21.333c0,11.776-9.557,21.333-21.333,21.333s-21.333-9.557-21.333-21.333 C384.002,244.225,393.559,234.668,405.335,234.668z"/> </g> </g> </g>
</svg>